<svg xmlns="http://www.w3.org/2000/svg" xmlns:xlink="http://www.w3.org/1999/xlink" version="1.1" x="0px" y="0px" viewBox="0 0 100 125" style="enable-background:new 0 0 100 100;" xml:space="preserve"><path d="M87.49,81.34c-1.17-1.14-2.56-2.09-4.1-2.76l-0.2-0.1c-1.57-0.67-3.29-1.02-5.08-1.02c-1.78,0-3.51,0.36-5.08,1.02  c-1.44,0.59-2.77,1.45-3.9,2.47V43.9v-0.1c0-1.85-1.5-3.38-3.34-3.38h-4.62c10.04-14.54-9.39-28.9-10.87-29.97  c-0.75-0.62-1.83-0.62-2.57,0.05c-0.83,0.71-0.92,2-0.19,2.81c0.01,0.05,4.87,5.85-3.04,10.47l-0.09,0.02  c-8.61,4.98-6.67,12.67-4.89,16.62h-5.21h-0.1c-1.84,0-3.35,1.52-3.35,3.38v37.16c-1.07-0.97-2.32-1.81-3.69-2.38l-0.2-0.1  c-1.57-0.67-3.29-1.02-5.07-1.02c-1.8,0-3.52,0.36-5.09,1.02c-1.63,0.66-3.09,1.66-4.3,2.85c-1.3,1.33-1.31,3.42-0.01,4.76  c1.3,1.28,3.42,1.31,4.73,0c0.61-0.62,1.34-1.12,2.14-1.43h0.01c0.76-0.33,1.61-0.5,2.52-0.5c0.89,0,1.75,0.17,2.5,0.5l0.14,0.05  c0.74,0.33,1.42,0.79,1.99,1.36l0.04,0.02c1.23,1.21,2.68,2.21,4.29,2.88l0.2,0.07c1.52,0.62,3.18,0.95,4.89,0.95  c1.78,0,3.51-0.38,5.08-1.02l0.19-0.07c1.54-0.71,2.94-1.64,4.1-2.81h0.01c0.58-0.59,1.26-1.05,2.01-1.38l0.13-0.05  c0.77-0.33,1.62-0.5,2.52-0.5c0.9,0,1.76,0.17,2.51,0.5h0.01h0.01c0.8,0.31,1.51,0.81,2.13,1.43h0.01c1.17,1.16,2.56,2.09,4.1,2.81  l0.19,0.07c1.58,0.64,3.29,1.02,5.08,1.02c1.71,0,3.37-0.33,4.88-0.95l0.21-0.07c1.62-0.66,3.08-1.66,4.3-2.88l0.02-0.02  c0.61-0.59,1.33-1.09,2.12-1.4h0.01c0.76-0.33,1.61-0.5,2.51-0.5c0.9,0,1.76,0.17,2.51,0.5l0.13,0.05c0.76,0.33,1.44,0.81,2.03,1.38  c1.31,1.31,3.43,1.28,4.72,0C88.8,84.77,88.8,82.67,87.49,81.34z M46.42,27.3l0.14-0.1c4.85-2.85,6.42-6.09,6.59-8.94  c4.99,5.18,10.67,13.99,2.8,22.17h-3.94v-8.99c0-1.09-0.9-2-2.01-2s-2.01,0.9-2.01,2v8.99h-3.95C43.29,39.3,38.82,31.68,46.42,27.3z  "/><text x="0" y="115" fill="#000000" font-size="5px" font-weight="bold" font-family="'Helvetica Neue', Helvetica, Arial-Unicode, Arial, Sans-serif">Created by the oldman creative</text><text x="0" y="120" fill="#000000" font-size="5px" font-weight="bold" font-family="'Helvetica Neue', Helvetica, Arial-Unicode, Arial, Sans-serif">from the Noun Project</text></svg>